<svg version="1.2" xmlns="http://www.w3.org/2000/svg" viewBox="0 0 1024 512" width="1024" height="512">
	<title>New Project</title>
	<defs>
		<clipPath clipPathUnits="userSpaceOnUse" id="cp1">
			<path d="m675.08 314.24c4.3 3.22 4.3 9.64 0 12.86l-157.96 118.62c-2.86 2.14-6.78 2.14-9.64 0l-157.96-118.62c-4.28-3.22-4.28-9.64 0-12.86l162.78-122.24z"/>
		</clipPath>
		<linearGradient id="g1" x2="1" gradientUnits="userSpaceOnUse" gradientTransform="matrix(0,93.102,-87.296,0,511.12,253.516)">
			<stop offset="0" stop-color="#ff4000"/>
			<stop offset="1" stop-color="#800000"/>
		</linearGradient>
	</defs>
	<style>
		.s0 { fill: #ffffff;stroke: #ffffff;paint-order:stroke fill markers;stroke-miterlimit:100;stroke-width: 16 } 
		.s1 { fill: #008000 } 
		.s2 { fill: #808080 } 
		.s3 { fill: url(#g1) } 
		.s4 { fill: #ffffff } 
	</style>
	<g id="Folder 1">
		<path id="Outline" fill-rule="evenodd" class="s0" d="m675.1 314.2c4.2 3.2 4.2 9.6 0 13l-158 118.6c-2.8 2-6.8 2-9.6 0l-158-118.6c-4.2-3.4-4.2-9.8 0-13l162.8-122.2z"/>
		<g id="Clip-Path" clip-path="url(#cp1)">
			<g>
				<path id="Green Thing" fill-rule="evenodd" class="s1" d="m675.1 314.2c4.2 3.2 4.2 9.6 0 13l-158 118.6c-2.8 2-6.8 2-9.6 0l-158-118.6c-4.2-3.4-4.2-9.8 0-13l162.8-122.2z"/>
				<path id="IHS" fill-rule="evenodd" class="s2" d="m680.7 303.6l-169.4 127.6-169.6-127.6 169.6-127.6z"/>
			</g>
		</g>
		<path id="Flame" class="s3" d="m549.7 295.8c-3.4-6-23-40.8-23-40.8q-0.4-0.6-1-1-0.8-0.4-1.6-0.4-0.8 0-1.4 0.4-0.8 0.4-1 1l-17.6 30.6-8.6-15.2q-0.4-0.6-1-1-0.8-0.4-1.6-0.4-0.8 0-1.4 0.4-0.8 0.4-1.2 1c-0.2 0.4-15.8 28.6-18.6 33.4q-1 1.8-1.8 3.4-0.8 1.8-1.4 3.8-0.4 1.8-0.8 3.8-0.2 1.8-0.2 3.8c0 14.6 11.4 27.8 25.2 28h31.4c16.8 0 30.6-15.4 30.6-33.2q0-2.4-0.2-4.6-0.4-2.4-1-4.6-0.6-2.2-1.6-4.4-1-2.2-2.2-4zm-28.4 45h-20.2q-2.6 0-5-1-2.4-1-4.2-3-2-1.8-3-4.2-1-2.4-1-5 0-0.8 0.2-1.8 0-0.8 0.4-1.6 0.2-1 0.6-1.8 0.4-0.8 1-1.4l9.6-15q0.2-0.4 0.6-0.6 0.4-0.2 0.8-0.2 0.2 0 0.6 0.2 0.4 0.2 0.6 0.6l5.2 7.8v-0.2c1.8-3.2 12.2-21.4 12.2-21.4q0.2-0.4 0.6-0.6 0.2-0.2 0.6-0.2 0.4 0 0.8 0.2 0.4 0.2 0.6 0.6c0 0.2 10.4 18.2 12.2 21.4q0.6 1 1.2 2.2 0.6 1.2 0.8 2.2 0.4 1.2 0.6 2.4 0.2 1.2 0.2 2.6c0 17.8-14.2 17.8-16 17.8z"/>
	</g>
	<path id="CPU^2" class="s4" aria-label="CPU^2"  d="m205.8 239.8q-34.6 0-53.8-22.7-19.2-22.8-19.2-64.6 0-38.6 22-63.2 22-24.8 57.1-24.8 14.1 0 26.6 4.8 12.8 4.7 28.2 15.7l-16.1 25.8q-12.1-8.4-20.5-12-8.5-3.6-17.4-3.6-18.7 0-30.5 15.4-11.8 15.3-11.8 41.4 0 27.4 10.8 42.3 10.7 14.8 29.7 14.8 8.2 0 18.4-4.1 10.5-4.1 23.1-12.3l16.3 25.6q-15.6 10.5-31.7 16.2-15.9 5.3-31.2 5.3zm128.5-3.8h-37.1v-167.7h59.1q32.5 0 50.4 14.9 17.9 14.6 17.9 41.2 0 27.9-17.9 42.5-17.9 14.6-51.7 14.6h-20.7zm52.7-111.1q0-12.8-7.2-19.2-7.1-6.7-21-6.7h-24.5v52.5h23.3q14.3 0 21.7-6.9 7.7-6.9 7.7-19.7zm126 80.9q12.5 0 18.4-6.7 6.1-6.9 6.1-21v-109.8h36.9v109.3q0 32-15.4 47.1-15.1 15.1-47.1 15.1-30.9 0-45.8-15.1-14.6-15.4-14.6-47.1v-109.3h37.1v109.8q0 14.1 5.9 21 6.2 6.7 18.5 6.7zm156.9-115.7l-34.1 76.5h-36.1l47.1-98.3h46.6l47.1 98.3h-36.8zm221.9 115.2v30.7h-124.9v-28.7l48.4-45.8q18.4-17.6 25.8-27.9 7.7-10.5 7.7-20.2 0-8.2-4.8-12.6-4.9-4.3-13.9-4.3-9.4 0-19.4 6.1-10 6.2-28.4 23.1l-19.7-24.9q22.2-20.2 37.6-28.1 15.6-8.2 32.5-8.2 24.3 0 38.9 12.8 14.6 12.8 14.6 34.6 0 15.6-8.2 28.4-8.2 12.5-29.2 31.7l-35.3 32.3v1z"/>
</svg>
